<svg xmlns="http://www.w3.org/2000/svg" viewBox="0 0 524 16"><defs><style>.cls-1{fill:#fff;}.cls-2{fill:#4e88f0;}.cls-3{fill:#4c4d4f;}</style></defs><title>资源 135</title><g id="图层_2" data-name="图层 2"><g id="图层_13" data-name="图层 13"><rect class="cls-1" x="357.13" y="0.19" width="1.74" height="15.63" rx="0.4" ry="0.4" transform="translate(99.2 255.49) rotate(-45)"/><rect class="cls-1" x="350.19" y="7.13" width="15.63" height="1.74" rx="0.33" ry="0.33" transform="translate(99.2 255.49) rotate(-45)"/><path class="cls-1" d="M311.68,12.56l3-3a.19.19,0,0,0,0-.26l-1-1a.19.19,0,0,0-.26,0l-3,3-2.09-2.09a.2.2,0,0,0-.35.14v5.25a.38.38,0,0,0,.38.38h5.25a.2.2,0,0,0,.14-.35Z"/><path class="cls-1" d="M318.32,3.44l-3,3a.19.19,0,0,0,0,.26l1,1a.19.19,0,0,0,.26,0l3-3,2.09,2.09a.2.2,0,0,0,.35-.14V1.38a.38.38,0,0,0-.38-.38h-5.25a.2.2,0,0,0-.14.35Z"/><path class="cls-1" d="M338.68,5.44l3-3a.18.18,0,0,0,0-.25l-1-1a.17.17,0,0,0-.26,0l-3,3-2.09-2.1a.21.21,0,0,0-.35.15V7.51a.38.38,0,0,0,.38.38h5.25a.2.2,0,0,0,.14-.35Z"/><path class="cls-1" d="M331.32,10.66l-3,3a.18.18,0,0,0,0,.25l1,1a.17.17,0,0,0,.26,0l3-3,2.09,2.1a.21.21,0,0,0,.35-.15V8.59a.38.38,0,0,0-.38-.38h-5.25a.21.21,0,0,0-.14.36Z"/><path class="cls-1" d="M297.3,6.3H296a5.41,5.41,0,0,0-.38-.89l.9-.9a.37.37,0,0,0,0-.52l-1.89-1.88a.36.36,0,0,0-.51,0l-.92.92a6.24,6.24,0,0,0-.88-.36V1.36A.36.36,0,0,0,292,1h-2.67a.36.36,0,0,0-.36.36V2.67a6.63,6.63,0,0,0-.87.36l-.93-.92a.36.36,0,0,0-.51,0L284.77,4a.37.37,0,0,0,0,.52l.91.9a5.45,5.45,0,0,0-.39.89H284a.37.37,0,0,0-.36.37V9.33a.37.37,0,0,0,.36.37h1.22a5.44,5.44,0,0,0,.38.94l-.86.85a.37.37,0,0,0,0,.52l1.89,1.88a.36.36,0,0,0,.51,0l.83-.83a5.53,5.53,0,0,0,1,.41v1.17a.36.36,0,0,0,.36.36H292a.36.36,0,0,0,.36-.36V13.47a5.53,5.53,0,0,0,1-.41l.83.83a.36.36,0,0,0,.51,0L296.56,12a.37.37,0,0,0,0-.52l-.85-.85a5.4,5.4,0,0,0,.37-.94h1.22a.38.38,0,0,0,.37-.37V6.67A.38.38,0,0,0,297.3,6.3Zm-6.63,4.1a2.4,2.4,0,1,1,2.4-2.4A2.4,2.4,0,0,1,290.67,10.4Z"/><path class="cls-1" d="M129.35,11.61h-12a.48.48,0,0,1-.42-.73l1.47-2.46A2.71,2.71,0,0,0,118.77,7V4.76A4.57,4.57,0,0,1,123.34.19h0a4.57,4.57,0,0,1,4.58,4.57V7a2.78,2.78,0,0,0,.38,1.4l1.46,2.45A.48.48,0,0,1,129.35,11.61Z"/><path class="cls-1" d="M126,13.33a2.67,2.67,0,1,1-5.33,0"/><path class="cls-1" d="M168.21,5.21l3.35-3.36a.37.37,0,0,0,0-.53l-.88-.88a.37.37,0,0,0-.53,0l-3.36,3.35-2.1-2.1A.41.41,0,0,0,164,2V7.4a.6.6,0,0,0,.6.6H170a.41.41,0,0,0,.29-.69Z"/><path class="cls-1" d="M159.79,10.79l-3.35,3.36a.37.37,0,0,0,0,.53l.88.88a.37.37,0,0,0,.53,0l3.36-3.35,2.1,2.1A.41.41,0,0,0,164,14V8.6a.6.6,0,0,0-.6-.6H158a.41.41,0,0,0-.29.69Z"/><path class="cls-1" d="M139.21,13.21l3.35-3.36a.37.37,0,0,0,0-.53l-.88-.88a.37.37,0,0,0-.53,0l-3.36,3.35-2.1-2.1A.41.41,0,0,0,135,10V15.4a.6.6,0,0,0,.6.6H141a.41.41,0,0,0,.29-.69Z"/><path class="cls-1" d="M146.79,2.79l-3.35,3.36a.37.37,0,0,0,0,.53l.88.88a.37.37,0,0,0,.53,0l3.36-3.35,2.1,2.1A.41.41,0,0,0,151,6V.6a.6.6,0,0,0-.6-.6H145a.41.41,0,0,0-.29.69Z"/><path class="cls-1" d="M191.06,0H179.94a.94.94,0,0,0-.94.94V15.06a.94.94,0,0,0,.94.94h11.12a.94.94,0,0,0,.94-.94V.94A.94.94,0,0,0,191.06,0ZM181,9V8h1V7h1V8h1V9h-1v1h-1V9Zm1.5,4.62,5.27-5.93.75.66-5.27,5.94ZM190,15h-3V14h3Zm0-2h-3V12h3Zm0-7.59a.6.6,0,0,1-.59.59h-7.82a.6.6,0,0,1-.59-.59V2.59a.6.6,0,0,1,.59-.59h7.82a.6.6,0,0,1,.59.59Z"/><path class="cls-1" d="M217.91,6.06h-1.27a6.15,6.15,0,0,0-.44-1l.91-.91a.59.59,0,0,0,0-.83L215.2,1.39a.59.59,0,0,0-.83,0l-.93.93a6.77,6.77,0,0,0-1-.41V.59a.58.58,0,0,0-.59-.59h-2.7a.58.58,0,0,0-.59.59V1.91a6.77,6.77,0,0,0-1,.41l-.93-.93a.59.59,0,0,0-.83,0L203.89,3.3a.59.59,0,0,0,0,.83l.91.91a6.15,6.15,0,0,0-.44,1h-1.27a.58.58,0,0,0-.59.59v2.7a.58.58,0,0,0,.59.59h1.22a7.15,7.15,0,0,0,.43,1.08l-.85.85a.59.59,0,0,0,0,.83l1.91,1.91a.59.59,0,0,0,.83,0l.83-.82a7.09,7.09,0,0,0,1.1.46v1.16a.58.58,0,0,0,.59.59h2.7a.58.58,0,0,0,.59-.59V14.25a7.09,7.09,0,0,0,1.1-.46l.83.82a.59.59,0,0,0,.83,0l1.91-1.91a.59.59,0,0,0,0-.83l-.85-.85a7.15,7.15,0,0,0,.43-1.08h1.22a.58.58,0,0,0,.59-.59V6.65A.58.58,0,0,0,217.91,6.06Zm-7.41,4.69A2.75,2.75,0,1,1,213.25,8,2.75,2.75,0,0,1,210.5,10.75Z"/><path class="cls-2" d="M243.06,0H231.94a.94.94,0,0,0-.94.94V15.06a.94.94,0,0,0,.94.94h11.12a.94.94,0,0,0,.94-.94V.94A.94.94,0,0,0,243.06,0ZM233,9V8h1V7h1V8h1V9h-1v1h-1V9Zm1.5,4.62,5.27-5.93.75.66-5.27,5.94ZM242,15h-3V14h3Zm0-2h-3V12h3Zm0-7.59a.6.6,0,0,1-.59.59h-7.82a.6.6,0,0,1-.59-.59V2.59a.6.6,0,0,1,.59-.59h7.82a.6.6,0,0,1,.59.59Z"/><path class="cls-2" d="M269.91,6.06h-1.27a6.15,6.15,0,0,0-.44-1l.91-.91a.59.59,0,0,0,0-.83L267.2,1.39a.59.59,0,0,0-.83,0l-.93.93a6.77,6.77,0,0,0-1-.41V.59a.58.58,0,0,0-.59-.59h-2.7a.58.58,0,0,0-.59.59V1.91a6.77,6.77,0,0,0-1,.41l-.93-.93a.59.59,0,0,0-.83,0L255.89,3.3a.59.59,0,0,0,0,.83l.91.91a6.15,6.15,0,0,0-.44,1h-1.27a.58.58,0,0,0-.59.59v2.7a.58.58,0,0,0,.59.59h1.22a7.15,7.15,0,0,0,.43,1.08l-.85.85a.59.59,0,0,0,0,.83l1.91,1.91a.59.59,0,0,0,.83,0l.83-.82a7.09,7.09,0,0,0,1.1.46v1.16a.58.58,0,0,0,.59.59h2.7a.58.58,0,0,0,.59-.59V14.25a7.09,7.09,0,0,0,1.1-.46l.83.82a.59.59,0,0,0,.83,0l1.91-1.91a.59.59,0,0,0,0-.83l-.85-.85a7.15,7.15,0,0,0,.43-1.08h1.22a.58.58,0,0,0,.59-.59V6.65A.58.58,0,0,0,269.91,6.06Zm-7.41,4.69A2.75,2.75,0,1,1,265.25,8,2.75,2.75,0,0,1,262.5,10.75Z"/><path class="cls-1" d="M77.41,10.59a3.8,3.8,0,0,0-2-2.59V4s0,0,0,0a1,1,0,0,0,.94-1.07A1,1,0,0,0,75.32,2H70.55a1,1,0,0,0-1,.89A1,1,0,0,0,70.44,4a0,0,0,0,1,0,0v3.9s0,0,0,0a3.83,3.83,0,0,0-2.17,2.69c-.06.3.21.57.58.57h3.22l.69,3.78a.08.08,0,0,0,.15,0l.69-3.78h3.22C77.2,11.16,77.47,10.89,77.41,10.59Z"/><rect class="cls-2" y="3" width="11" height="11"/><path class="cls-2" d="M382.81,14h-9.62A1.19,1.19,0,0,1,372,12.81V3.19A1.19,1.19,0,0,1,373.19,2h5.86a.5.5,0,0,1,0,1h-5.86a.18.18,0,0,0-.19.19v9.62a.18.18,0,0,0,.19.19h9.62a.18.18,0,0,0,.19-.19V6.61a.5.5,0,0,1,1,0v6.2A1.19,1.19,0,0,1,382.81,14Z"/><polyline class="cls-2" points="376.01 8.86 381.94 2.94 383.35 4.35 377.43 10.28"/><rect class="cls-2" x="382.39" y="2.4" width="2" height="1" transform="translate(114.35 -270.25) rotate(45)"/><path class="cls-2" d="M375.22,10.81l.45-1.6,1.42,1.41-1.61.45A.19.19,0,0,1,375.22,10.81Z"/><rect class="cls-3" x="517.13" y="0.19" width="1.74" height="15.63" rx="0.4" ry="0.4" transform="translate(146.06 368.62) rotate(-45)"/><rect class="cls-3" x="510.19" y="7.13" width="15.63" height="1.74" rx="0.33" ry="0.33" transform="translate(146.06 368.62) rotate(-45)"/><path class="cls-3" d="M471.68,12.56l3-3a.19.19,0,0,0,0-.26l-1-1a.19.19,0,0,0-.26,0l-3,3-2.09-2.09a.2.2,0,0,0-.35.14v5.25a.38.38,0,0,0,.38.38h5.25a.2.2,0,0,0,.14-.35Z"/><path class="cls-3" d="M478.32,3.44l-3,3a.19.19,0,0,0,0,.26l1,1a.19.19,0,0,0,.26,0l3-3,2.09,2.09a.2.2,0,0,0,.35-.14V1.38a.38.38,0,0,0-.38-.38h-5.25a.2.2,0,0,0-.14.35Z"/><path class="cls-3" d="M498.68,5.44l3-3a.18.18,0,0,0,0-.25l-1-1a.17.17,0,0,0-.26,0l-3,3-2.09-2.1a.21.21,0,0,0-.35.15V7.51a.38.38,0,0,0,.38.38h5.25a.2.2,0,0,0,.14-.35Z"/><path class="cls-3" d="M491.32,10.66l-3,3a.18.18,0,0,0,0,.25l1,1a.17.17,0,0,0,.26,0l3-3,2.09,2.1a.21.21,0,0,0,.35-.15V8.59a.38.38,0,0,0-.38-.38h-5.25a.21.21,0,0,0-.14.36Z"/><path class="cls-3" d="M457.3,6.3H456a5.41,5.41,0,0,0-.38-.89l.9-.9a.37.37,0,0,0,0-.52l-1.89-1.88a.36.36,0,0,0-.51,0l-.92.92a6.24,6.24,0,0,0-.88-.36V1.36A.36.36,0,0,0,452,1h-2.67a.36.36,0,0,0-.36.36V2.67a6.63,6.63,0,0,0-.87.36l-.93-.92a.36.36,0,0,0-.51,0L444.77,4a.37.37,0,0,0,0,.52l.91.9a5.45,5.45,0,0,0-.39.89H444a.37.37,0,0,0-.36.37V9.33a.37.37,0,0,0,.36.37h1.22a5.44,5.44,0,0,0,.38.94l-.86.85a.37.37,0,0,0,0,.52l1.89,1.88a.36.36,0,0,0,.51,0l.83-.83a5.53,5.53,0,0,0,1,.41v1.17a.36.36,0,0,0,.36.36H452a.36.36,0,0,0,.36-.36V13.47a5.53,5.53,0,0,0,1-.41l.83.83a.36.36,0,0,0,.51,0L456.56,12a.37.37,0,0,0,0-.52l-.85-.85a5.4,5.4,0,0,0,.37-.94h1.22a.38.38,0,0,0,.37-.37V6.67A.38.38,0,0,0,457.3,6.3Zm-6.63,4.1a2.4,2.4,0,1,1,2.4-2.4A2.4,2.4,0,0,1,450.67,10.4Z"/><path class="cls-3" d="M407.06,0H395.94a.94.94,0,0,0-.94.94V15.06a.94.94,0,0,0,.94.94h11.12a.94.94,0,0,0,.94-.94V.94A.94.94,0,0,0,407.06,0ZM397,9V8h1V7h1V8h1V9h-1v1h-1V9Zm1.5,4.62,5.27-5.93.75.66-5.27,5.94ZM406,15h-3V14h3Zm0-2h-3V12h3Zm0-7.59a.6.6,0,0,1-.59.59h-7.82a.6.6,0,0,1-.59-.59V2.59a.6.6,0,0,1,.59-.59h7.82a.6.6,0,0,1,.59.59Z"/><path class="cls-3" d="M433.91,6.06h-1.27a6.15,6.15,0,0,0-.44-1l.91-.91a.59.59,0,0,0,0-.83L431.2,1.39a.59.59,0,0,0-.83,0l-.93.93a6.77,6.77,0,0,0-1-.41V.59a.58.58,0,0,0-.59-.59h-2.7a.58.58,0,0,0-.59.59V1.91a6.77,6.77,0,0,0-1,.41l-.93-.93a.59.59,0,0,0-.83,0L419.89,3.3a.59.59,0,0,0,0,.83l.91.91a6.15,6.15,0,0,0-.44,1h-1.27a.58.58,0,0,0-.59.59v2.7a.58.58,0,0,0,.59.59h1.22a7.15,7.15,0,0,0,.43,1.08l-.85.85a.59.59,0,0,0,0,.83l1.91,1.91a.59.59,0,0,0,.83,0l.83-.82a7.09,7.09,0,0,0,1.1.46v1.16a.58.58,0,0,0,.59.59h2.7a.58.58,0,0,0,.59-.59V14.25a7.09,7.09,0,0,0,1.1-.46l.83.82a.59.59,0,0,0,.83,0l1.91-1.91a.59.59,0,0,0,0-.83l-.85-.85a7.15,7.15,0,0,0,.43-1.08h1.22a.58.58,0,0,0,.59-.59V6.65A.58.58,0,0,0,433.91,6.06Zm-7.41,4.69A2.75,2.75,0,1,1,429.25,8,2.75,2.75,0,0,1,426.5,10.75Z"/><path class="cls-1" d="M5.63,4.86v6.81H4.75V4.86Z"/><rect class="cls-2" x="17" y="3" width="11" height="11"/><path class="cls-1" d="M24.91,11.67V7.16c0-.37,0-.82.06-1.34h0a4,4,0,0,1-.2.68L22.5,11.67H22L19.77,6.54a4.6,4.6,0,0,1-.2-.72h0c0,.31.05.77.05,1.38v4.47h-.84V4.86h1.19l2,4.67a5.9,5.9,0,0,1,.3.83h0c.15-.42.26-.7.32-.85l2-4.65h1.13v6.81Z"/><rect class="cls-2" x="34" y="3" width="11" height="11"/><path class="cls-1" d="M41.26,5.64H38.63V7.92h2.43v.77H38.63v3h-.88V4.86h3.51Z"/><rect class="cls-2" x="50.21" y="3" width="11" height="11"/><path class="cls-1" d="M58.67,4.86l-2.5,6.81h-1L52.74,4.86h1l1.83,5.32a3.23,3.23,0,0,1,.14.61h0a2.43,2.43,0,0,1,.15-.62l1.87-5.31Z"/><path class="cls-1" d="M95,10h6a4,4,0,0,1,4,4v2a0,0,0,0,1,0,0H91a0,0,0,0,1,0,0V14A4,4,0,0,1,95,10Z"/><ellipse class="cls-1" cx="98" cy="4.2" rx="4.11" ry="4"/></g></g></svg>