<svg xmlns="http://www.w3.org/2000/svg" viewBox="0 0 42.58 11.45"><defs><style>.cls-1{fill:#fff;}</style></defs><title>资源 140</title><g id="图层_2" data-name="图层 2"><g id="图层_13" data-name="图层 13"><rect class="cls-1" x="4.56" y="-1.56" width="2.23" height="14.47" rx="0.56" ry="0.56" transform="translate(-2.35 5.67) rotate(-45)"/><rect class="cls-1" x="4.56" y="-1.56" width="2.23" height="14.47" rx="0.56" ry="0.56" transform="translate(5.67 13.69) rotate(-135)"/><path class="cls-1" d="M32.42,11.28l-5-5.07a.57.57,0,0,1,0-.8L28,4.8a.56.56,0,0,1,.8,0l3.61,3.64a.57.57,0,0,0,.8,0L41,.76a.57.57,0,0,1,.8,0l.61.62a.57.57,0,0,1,0,.8l-9.2,9.1A.57.57,0,0,1,32.42,11.28Z"/></g></g></svg>